<svg height="933.333" viewBox="0 0 700 700" width="933.333" xmlns="http://www.w3.org/2000/svg"><path d="M207.7 143.7c-19.2 31-50 81.9-50 82.7 0 1 3.8 7.3 23.9 39.8 4.4 7 8.4 13.6 8.9 14.5 2.3 4.2 25.5 42 26.7 43.6 1.3 1.7 1.9 1.2 6.9-6.9 3-4.9 5.6-9.3 5.8-9.9.2-.5.7-1.2 1-1.5.6-.4 11.8-18.9 13.1-21.5.5-1 4.2-6.8 8.5-13.5 2.2-3.5 39.6-64.6 42.6-69.8 7.1-12 17.5-28.8 18.1-29 .5-.2.8-.7.8-1.2 0-.4 4.1-7.4 9-15.5 5-8.1 9-14.9 9-15.1s-27.4-.4-61-.4h-61zm160.3-3.2c0 .3 1.2 2.4 2.7 4.8 1.5 2.3 3.3 5.1 3.9 6.2 1.6 3 59.2 97.4 61.9 101.5 2.1 3.3 60.4 98.7 105.3 172.5 5.4 8.8 11 18 12.6 20.3l2.7 4.4 7.6-12.4c4.2-6.7 8.4-13.7 9.3-15.3 1-1.7 8.8-14.5 17.5-28.5 18.3-29.6 20.3-33.7 20.7-41.7.3-8.7-.8-13.1-5.4-20.8-2.2-3.9-4.7-8.1-5.5-9.5s-2.2-3.7-3.1-5.2c-3-4.8-55.8-91.1-74.5-121.8-9.9-16.2-18.8-30.9-19.9-32.5-1-1.7-4.5-7.3-7.7-12.5l-5.8-9.5-61.1-.3c-33.7-.1-61.2 0-61.2.3zM135.5 261.7c-3.8 6.4-8.2 13.4-9.6 15.7-5.2 8-32.8 53.6-34.5 56.8-4.7 8.9-5 21.9-.7 30.2.9 1.7 13.3 22.2 27.6 45.6s26.7 43.6 27.4 45c.8 1.4 2.7 4.5 4.3 7s3.6 5.6 4.4 7c1.4 2.5 45.4 74.5 52.1 85.3l3.5 5.7h61c33.6 0 61-.2 61-.5 0-.2-5.8-9.9-13-21.6-7.1-11.6-13-21.3-13-21.6 0-.2-.8-1.6-1.8-3.1-3.3-4.8-36.4-58.6-42.1-68.4-.9-1.5-21.6-35.5-46.1-75.4s-45.2-73.8-46-75.2c-.9-1.5-2.3-3.8-3.2-5.2-.8-1.4-6.2-10.2-11.8-19.5-5.7-9.4-10.8-17.5-11.4-18.2-.8-.9-2.9 1.8-8.1 10.4zm341.3 119.5c-2.4 4-13.4 21.9-24.3 39.8s-21 34.4-22.4 36.6c-3.5 5.6-8 13-11.1 18.1-1.4 2.3-5.4 8.9-8.8 14.5-3.5 5.7-10.6 17.3-15.8 25.8-5.3 8.5-9.9 16.2-10.4 17-6.7 10.7-16 26.1-16 26.5 0 .3 27.5.4 61.2.3l61.1-.3 1.8-3c1-1.7 2.8-4.6 3.9-6.5s12.1-19.9 24.4-39.9l22.4-36.4-2.7-4.6c-1.5-2.5-7.1-11.6-12.3-20.1s-13.9-22.7-19.3-31.5-12.6-20.6-16.1-26.3-6.4-10.6-6.4-11c-.1-.4-1.1-2-2.4-3.5l-2.3-2.8z"/></svg>