<svg viewBox="0 0 357 47" xmlns="http://www.w3.org/2000/svg"><g fill="none" fill-rule="evenodd"><path d="M112 1.43h4.93v33.53H112z" fill="#34a853"/><g fill-rule="nonzero"><path d="M48.5 13.04c-6.31 0-11.45 4.82-11.45 11.46 0 6.6 5.14 11.46 11.45 11.46S59.95 31.1 59.95 24.5c0-6.64-5.14-11.46-11.45-11.46zm0 18.4c-3.46 0-6.44-2.86-6.44-6.94 0-4.12 2.98-6.94 6.44-6.94s6.44 2.82 6.44 6.94c0 4.08-2.98 6.94-6.44 6.94z" fill="#ea4335"/><path d="M73.5 13.09c-6.31 0-11.45 4.82-11.45 11.46 0 6.6 5.14 11.46 11.45 11.46s11.45-4.86 11.45-11.46c0-6.65-5.14-11.46-11.45-11.46zm0 18.4c-3.46 0-6.44-2.86-6.44-6.94 0-4.12 2.98-6.94 6.44-6.94s6.44 2.82 6.44 6.94c0 4.07-2.98 6.94-6.44 6.94z" fill="#fbbc05"/><path d="M104.23 15.65h-.17c-1.13-1.34-3.3-2.56-6.03-2.56-5.73 0-10.98 5.03-10.98 11.5C87.05 31.01 92.3 36 98.03 36c2.73 0 4.9-1.22 6.03-2.6h.17v1.65c0 4.38-2.34 6.73-6.12 6.73-3.08 0-4.99-2.21-5.77-4.08l-4.38 1.82c1.26 3.04 4.6 6.77 10.15 6.77 5.9 0 10.89-3.47 10.89-11.93V14h-4.77zm-5.78 15.84c-3.47 0-6.38-2.91-6.38-6.9 0-4.04 2.91-6.99 6.38-6.99 3.43 0 6.12 2.95 6.12 6.99 0 3.99-2.69 6.9-6.12 6.9zm-71.22-4.08c1.39-1.39 2.32-3.42 2.67-6.41H18.22v-4.76H34.6c.17.87.3 2.06.3 3.2 0 3.66-1 8.19-4.22 11.41-3.14 3.27-7.14 5.01-12.46 5.01C8.38 35.86.1 27.84.1 18S8.38.14 18.22.14c5.44 0 9.32 2.13 12.24 4.92L27.02 8.5c-2.09-1.96-4.92-3.48-8.8-3.48-7.19 0-12.81 5.79-12.81 12.98s5.62 12.98 12.81 12.98c4.66 0 7.32-1.87 9.01-3.57z" fill="#4285f4"/><path d="M130.77 31.49c-2.56 0-4.38-1.17-5.55-3.47l15.32-6.34-.52-1.3c-.95-2.56-3.86-7.29-9.81-7.29-5.9 0-10.81 4.64-10.81 11.46 0 6.42 4.86 11.46 11.37 11.46 5.25 0 8.29-3.21 9.55-5.08l-3.91-2.6c-1.3 1.9-3.08 3.16-5.64 3.16zm-.39-13.98c2 0 3.69 1 4.25 2.43l-10.24 4.25c-.13-4.42 3.43-6.68 5.99-6.68z" fill="#ea4335"/><path d="M151 34.96h9.36c9.53 0 15.51-6.32 15.51-15.3 0-8.93-5.98-15.3-15.51-15.3H151zm3.93-3.76V8.13h5.43c7.01 0 11.49 4.23 11.49 11.54 0 7.35-4.49 11.54-11.49 11.54h-5.43zm34.06 4.44c4.83 0 7.91-2.73 9.14-5.73l-3.5-1.45c-1.11 2.65-3.42 3.59-5.73 3.59-3.25 0-6.45-2.39-6.67-6.84h16.54s.04-.43.04-.73c0-6.75-4.02-11.15-10.26-11.15-6.15 0-10.26 5.21-10.26 11.15.02 6.33 4.29 11.16 10.7 11.16zm5.64-13.67h-12.14c.77-3.08 3.08-5.04 5.98-5.04 4.49 0 6.03 3.2 6.16 5.04zm13.59 12.99h3.93l8.55-20.94h-4.19l-6.24 16.24h-.09l-6.15-16.24h-4.27zm24.1.68c4.83 0 7.91-2.73 9.14-5.73l-3.5-1.45c-1.11 2.65-3.42 3.59-5.73 3.59-3.25 0-6.45-2.39-6.67-6.84h16.54s.04-.43.04-.73c0-6.75-4.02-11.15-10.26-11.15-6.15 0-10.26 5.21-10.26 11.15.02 6.33 4.29 11.16 10.7 11.16zm5.64-13.67h-12.14c.77-3.08 3.08-5.04 5.98-5.04 4.49 0 6.03 3.2 6.16 5.04zm11.71 12.99V4.37h-3.93v30.59zm14.14-21.62c-6.28 0-10.77 4.79-10.77 11.15s4.49 11.15 10.77 11.15 10.77-4.79 10.77-11.15-4.49-11.15-10.77-11.15zm0 18.71c-3.5 0-6.84-2.78-6.84-7.56s3.33-7.56 6.84-7.56c3.5 0 6.84 2.78 6.84 7.56s-3.34 7.56-6.84 7.56zm25.21 3.59c5.3 0 9.96-4.74 9.96-11.15s-4.66-11.15-9.96-11.15c-3.33 0-5.94 1.67-7.14 3.59h-.17v-2.91h-3.76v30.17h3.93v-9.23l-.17-2.91h.17c1.2 1.92 3.81 3.59 7.14 3.59zm-.64-3.59c-3.5 0-6.67-2.78-6.67-7.56s3.16-7.56 6.67-7.56c3.5 0 6.67 2.86 6.67 7.56s-3.17 7.56-6.67 7.56zm23.67 3.59c4.83 0 7.91-2.73 9.14-5.73l-3.5-1.45c-1.11 2.65-3.42 3.59-5.73 3.59-3.25 0-6.45-2.39-6.67-6.84h16.54s.04-.43.04-.73c0-6.75-4.02-11.15-10.26-11.15-6.15 0-10.26 5.21-10.26 11.15.02 6.33 4.29 11.16 10.7 11.16zm5.64-13.67h-12.14c.77-3.08 3.08-5.04 5.98-5.04 4.5 0 6.04 3.2 6.16 5.04zm11.71 12.99V23.51c0-3.85 2.73-6.11 5.43-6.11.85 0 1.54.09 2.09.3l1.5-3.67c-.81-.34-1.67-.51-2.95-.51-2.18 0-5.21 1.54-6.07 3.93h-.17v-3.42h-3.76v20.94h3.93zm19.14.68c4.91 0 8.25-2.86 8.25-6.58 0-2.56-1.62-5.13-5.77-6.11l-4.14-.98c-1.67-.38-2.78-1.11-2.78-2.44 0-1.71 1.92-2.69 4.14-2.69 2.05 0 3.97.81 4.79 2.78l3.42-1.41c-1.28-3.2-4.44-4.87-8.08-4.87-4.36 0-8.29 2.44-8.29 6.24 0 3.67 3.67 5.34 5.6 5.81l4.23 1.03c2.22.56 2.86 1.71 2.86 2.78 0 1.75-1.75 2.95-4.19 2.95-2.52 0-4.57-1.28-5.68-3.93l-3.5 1.45c1.24 2.98 4.1 5.97 9.14 5.97z" fill="#000" opacity=".54"/></g><path d="M0-1h357v48H0z"/></g></svg>