<svg xmlns="http://www.w3.org/2000/svg" viewBox="0 0 502 481"><defs><linearGradient id="a" x1="-21.471%" x2="84.198%" y1="37.806%" y2="97.817%"><stop offset="0%" stop-color="#1A237E" stop-opacity=".2"/><stop offset="100%" stop-color="#1A237E" stop-opacity=".02"/></linearGradient></defs><g fill="none" fill-rule="evenodd"><path fill="#03A9F4" d="M32.333 416.667c-17.68 0-32-14.32-32-32 0-5.814 1.547-11.28 4.267-15.974l202.667-352C212.787 7.12 223.133.667 235 .667s22.213 6.453 27.733 16.026l202.667 352c2.72 4.694 4.267 10.16 4.267 15.974 0 17.68-14.32 32-32 32H32.333z"/><path fill="url(#a)" d="M235 150v266.667h266.667z"/><path fill="#039BE5" d="M207.267 16.693L4.6 368.693c-2.72 4.694-4.267 10.16-4.267 15.974 0 17.68 14.32 32 32 32H235v-416c-11.867 0-22.213 6.453-27.733 16.026z"/><path fill="#F1F1F1" d="M235 150l181.333 320-10.666 10.667-170.667-64-170.667 64L53.667 470z"/><path fill="#E1E1E1" d="M235 150l181.333 320-10.666 10.667-170.667-64"/></g></svg>