<svg viewBox="0 0 244 219" xmlns="http://www.w3.org/2000/svg"><g fill="none" fill-rule="evenodd"><rect fill="#6c6c6c" height="218.73" rx="23.78" width="218.79" x="24.79"/><rect fill="#aaa" height="174.16" rx="7.95" width="174.16" x="47.1" y="22.31"/><g fill="#6c6c6c"><rect height="22.92" rx="10.3" width="46.85" y="47.62"/><rect height="22.92" rx="10.3" width="118.55" y="151.49"/><rect height="22.92" rx="10.3" width="118.55" y="99.55"/></g><circle cx="148.42" cy="58.72" fill="#e8f7f7" r="11.46"/><path d="M148.42 138.67c-6.31-.022-11.415-5.14-11.42-11.45V95.39c0-6.33 5.13-11.46 11.46-11.46s11.46 5.13 11.46 11.46v31.83a11.46 11.46 0 0 1-11.5 11.45z" fill="#6c6c6c"/><circle cx="191.74" cy="58.72" fill="#e8f7f7" r="11.46"/><circle cx="148.19" cy="163.88" fill="#e8f7f7" r="11.46"/><path d="M24.79 151.49H10.3c-5.682.016-10.284 4.618-10.3 10.3v2.31c.016 5.682 4.618 10.284 10.3 10.3h14.49zM0 57.92v2.31c.016 5.682 4.618 10.284 10.3 10.3h14.49V47.62H10.3C4.618 47.636.016 52.238 0 57.92zm0 51.94v2.31c.016 5.682 4.618 10.284 10.3 10.3h14.49V99.55H10.3C4.614 99.567.011 104.174 0 109.86z" fill="#aaa"/></g></svg>