<svg viewBox="0 0 294 345" xmlns="http://www.w3.org/2000/svg"><g fill="none" fill-rule="evenodd" transform="translate(4 2)"><g fill="#a4c639"><g stroke="#fff"><ellipse cx="143" cy="109" rx="91" ry="84" stroke-width="14.4"/><rect height="182" rx="22" stroke-width="14.4" width="182" x="52" y="88"/><rect height="86" rx="6.5" stroke-width="7.2" transform="scale(-1 1) rotate(29 0 -371.045)" width="13" x="100" y="-2.24"/><rect height="133" rx="24" stroke-width="7.2" width="48" x="238" y="109"/><rect height="133" rx="24" stroke-width="7.2" width="48" x="153" y="206"/><rect height="86" rx="6.5" stroke-width="7.2" transform="rotate(29 179.5 40.76)" width="13" x="173" y="-2.24"/><rect height="133" rx="24" stroke-width="7.2" width="48" y="109"/><rect height="133" rx="24" stroke-width="7.2" width="48" x="85" y="206"/></g><ellipse cx="143" cy="109" rx="91" ry="84"/><rect height="182" rx="22" width="182" x="52" y="88"/></g><g fill="#fff" stroke="#fff" stroke-width="7.2"><path d="M48 112.5h190"/><circle cx="101" cy="68" r="4"/><circle cx="185" cy="68" r="4"/></g></g></svg>