<svg xmlns="http://www.w3.org/2000/svg" viewBox="0 0 340 394"><defs><linearGradient id="a" x1="80.258%" x2="21.439%" y1="98.614%" y2="-10.489%"><stop offset="0%" stop-color="#1A237E" stop-opacity=".01"/><stop offset="100%" stop-color="#1A237E" stop-opacity=".3"/></linearGradient></defs><g fill="none" fill-rule="evenodd"><path fill="#E1BEE7" d="M174.3 121.2c-28.1 0-52.5 15.3-65.7 37.9l51.7 29.8c8.7 5 19.3 5 28 0l51.6-29.8c-13-22.7-37.5-37.9-65.6-37.9z"/><path fill="#FAFAFA" d="M160.3 188.9l-51.7-29.8c-6.5 11.2-10.2 24.1-10.2 37.9 0 41.9 33.9 75.8 75.8 75.8S250 238.9 250 197c0-13.8-3.7-26.8-10.2-37.9l-51.6 29.8c-8.5 5-19.2 5-27.9 0z"/><path fill="#7B1FA2" d="M334.6 289.6L240 234.9c-13.1 22.7-37.6 37.9-65.7 37.9v120.3c4.5 0 8.9-1.2 12.9-3.5l147.5-85.2s.1 0 .1-.1c5.7-3.2 5.5-11.5-.2-14.7z"/><path fill="#4A148C" d="M174.3 272.8c-28.1 0-52.6-15.2-65.7-37.9L4.4 295.1c2.2 3.9 5.5 7.1 9.4 9.4l147.5 85.2c4 2.3 8.4 3.5 12.9 3.5V272.8h.1z"/><path fill="#7B1FA2" d="M174.3 121.2V.9c-4.5 0-8.9 1.2-12.9 3.5L13.9 89.6c-4 2.3-7.2 5.6-9.4 9.4l104.2 60.2c13.1-22.8 37.6-38 65.6-38z"/><path fill="#4A148C" d="M334.8 89.6s-.1 0-.1-.1L187.2 4.3c-4-2.3-8.4-3.5-12.9-3.5v120.3c28.1 0 52.6 15.2 65.7 37.9l94.6-54.6c5.7-3.2 5.9-11.5.2-14.8z"/><path fill="#BA68C8" d="M98.5 197c0-13.8 3.7-26.8 10.1-37.9L4.4 98.9c-2.2 3.9-3.5 8.3-3.5 12.9v170.3c0 4.6 1.2 9 3.5 12.9l104.2-60.2c-6.4-11-10.1-24-10.1-37.8z"/><path fill="url(#a)" d="M240 234.9c-13.1 22.7-37.6 37.9-65.6 37.9-11.2 0-21.9-2.5-31.5-6.8l129.3 74.7 62.6-36.1c5.8-3.3 5.8-11.7 0-15L240 234.9z"/></g></svg>