<svg xmlns="http://www.w3.org/2000/svg" viewBox="0 0 130 144"><g fill="none" fill-rule="evenodd"><path fill="#4285F4" d="M12.64.088C5.935.082.495 5.52.5 12.228v104.72c-.006 6.706 5.434 12.145 12.14 12.14h4.727a19.977 19.977 0 0 0 19.293 14.83 19.977 19.977 0 0 0 19.278-14.83h20.568a8 8 0 0 0 8-8v-113l-8-8H12.64z"/><path fill="#C8D1DB" d="M72.508.082c-.01 17.703-.008 35.402-.008 53.115L55.87 43.8c-2.398-1.353-5.365.376-5.37 3.129v40.62c.005 2.753 2.972 4.482 5.37 3.13l16.63-9.4v47.81h45.48c6.362 0 11.52-5.158 11.52-11.52v-106c-.022-6.346-5.173-11.48-11.52-11.48L72.508.082z"/></g></svg>