<svg xmlns="http://www.w3.org/2000/svg" viewBox="0 0 734 463"><path fill="#F16523" fill-rule="evenodd" d="M42 0h650c23.196 0 42 18.804 42 42v379c0 23.196-18.804 42-42 42H511.59a35 35 0 0 1-31.416-19.573l-72.015-146.65c-10.224-20.821-35.392-29.411-56.213-19.187a42 42 0 0 0-18.868 18.553L257.37 443.956A35 35 0 0 1 226.218 463H42c-23.196 0-42-18.804-42-42V42C0 18.804 18.804 0 42 0zm159.5 311c45.011 0 81.5-36.489 81.5-81.5S246.511 148 201.5 148 120 184.489 120 229.5s36.489 81.5 81.5 81.5zm333 0c45.011 0 81.5-36.489 81.5-81.5S579.511 148 534.5 148 453 184.489 453 229.5s36.489 81.5 81.5 81.5z"/></svg>