<svg xmlns="http://www.w3.org/2000/svg" viewBox="0 0 184 149"><g fill="none" fill-rule="evenodd"><path fill="#EA4335" d="M117.109 41.875l5.894.111 16.013-16.013.776-6.781C127.069 7.875 110.328.981 92 .981c-33.185 0-61.182 22.573-69.484 53.166 1.752-1.211 5.481-.309 5.481-.309l32.002-5.257s1.656-2.722 2.474-2.553C69.793 38.016 80.319 32.981 92 32.981c9.504 0 18.239 3.337 25.109 8.894"/><path fill="#4285F4" d="M161.496 54.189c-3.714-13.721-11.387-25.824-21.719-35.009l-22.683 22.683C126.176 49.202 132 60.422 132 72.981v4c11.028 0 20 8.972 20 20s-8.972 20-20.004 20H92l-4.003 4.02v24.001L92 148.981h40c28.673 0 52-23.327 52-52 0-17.726-8.922-33.401-22.504-42.792"/><path fill="#34A853" d="M51.998 148.981h39.969v-32H52.003c-2.939 0-5.723-.653-8.239-1.797l-5.765 1.762-16.021 16.021-1.403 5.406c8.735 6.649 19.624 10.607 31.423 10.608"/><path fill="#FBBC05" d="M52 44.981c-28.673 0-52 23.327-52 52 0 16.883 8.092 31.906 20.597 41.411l23.193-23.194C36.85 112.058 32 105.082 32 96.981c0-11.028 8.972-20 20-20 8.101 0 15.077 4.849 18.218 11.79l23.194-23.194C83.906 53.073 68.883 44.981 52 44.981"/></g></svg>