<svg viewBox="0 0 118 106" xmlns="http://www.w3.org/2000/svg"><radialGradient id="a" cx="14.378%" cy="6.752%" gradientTransform="matrix(.88895 0 0 1 .016 0)" r="115.45%"><stop offset="0" stop-color="#fff" stop-opacity=".1"/><stop offset="1" stop-color="#fff" stop-opacity="0"/></radialGradient><g fill="none" fill-rule="evenodd" transform="translate(-5 -11)"><path d="M82.007 95.287l-12 20.86H38.58a7.824 7.824 0 0 1-6.787-3.934l-25.42-44.32a7.828 7.828 0 0 1 0-7.78l9.674-16.86L27.987 64l18 31.287z" fill="#fbbc05"/><path d="M121.627 67.893l-25.42 44.327a7.816 7.816 0 0 1-6.787 3.933H70l12-20.86L100.013 64 82 32.713h23.907l15.713 27.4a7.779 7.779 0 0 1 .007 7.78z" fill="#ea4335"/><path d="M105.913 32.713H45.987L27.987 64l-11.94-20.753 15.746-27.46a7.816 7.816 0 0 1 6.787-3.934h50.847a7.832 7.832 0 0 1 6.786 3.934z" fill="#4285f4"/><path d="M82.007 32.713l18 31.287L82 95.287H45.993L27.987 64l18-31.287z" fill="#e0e0e0"/><circle cx="64" cy="64" fill="#fff" r="15.647"/><path d="M31.793 16.433A7.816 7.816 0 0 1 38.58 12.5h50.847a7.832 7.832 0 0 1 6.786 3.933l9.334 16.28h.373l-9.707-16.926a7.816 7.816 0 0 0-6.786-3.934H38.58a7.824 7.824 0 0 0-6.787 3.934l-15.746 27.46.186.326z" fill="#fff" opacity=".2"/><path d="M27.987 64l18-31.287h59.926l-.373-.653H45.987l-18 31.287" fill="#1a237e" fill-opacity=".2"/><path d="M6.373 60.76l9.674-16.867 11.94 20.754 18 31.286h35.64l.38-.653h-36.02l-18-31.28-11.94-20.753-9.674 16.86a7.874 7.874 0 0 0-1.02 4.22 7.85 7.85 0 0 1 1.02-3.567z" fill="#fff" opacity=".2"/><path d="M70.38 115.493h-31.8a7.824 7.824 0 0 1-6.787-3.933L6.373 67.24a7.853 7.853 0 0 1-1.02-3.567 7.77 7.77 0 0 0 1.02 4.22l25.42 44.327a7.816 7.816 0 0 0 6.787 3.933h31.427z" fill="#bf360c" opacity=".2"/><path d="M100.38 64l-18-31.287h-.373L100.013 64zm21.247 3.24l-25.42 44.327a7.816 7.816 0 0 1-6.787 3.933H70.38l-.38.653h19.42a7.832 7.832 0 0 0 6.787-3.933l25.42-44.327a7.829 7.829 0 0 0 1.02-4.22 7.853 7.853 0 0 1-1.02 3.567z" fill="#3e2723" fill-rule="nonzero" opacity=".2"/><path d="M105.913 33.36l15.714 27.4a7.85 7.85 0 0 1 1.02 3.567 7.77 7.77 0 0 0-1.02-4.22l-15.714-27.4H82.007l.38.653zM82.007 95.94L100.38 64h-.367L82.007 95.287l-12 20.86h.373z" fill="#fff" fill-rule="nonzero" opacity=".2"/><path d="M121.627 60.107l-15.714-27.4-9.706-16.927a7.816 7.816 0 0 0-6.787-3.933H38.58a7.824 7.824 0 0 0-6.787 3.933L6.373 60.107a7.828 7.828 0 0 0 0 7.78l25.42 44.326a7.816 7.816 0 0 0 6.787 3.934h50.847a7.832 7.832 0 0 0 6.786-3.934l25.42-44.326a7.811 7.811 0 0 0-.006-7.78z" fill="url(#a)"/><path d="M0 0h128v128H0z"/></g></svg>