<svg viewBox="0 0 128 116" xmlns="http://www.w3.org/2000/svg"><g fill="none" fill-rule="evenodd"><path d="M126.47 52.12l-26.3-45.74A11.56 11.56 0 0 0 90.31.5H37.7a11.55 11.55 0 0 0-9.86 5.88L1.53 52a11.48 11.48 0 0 0 0 11.44l26.3 46a11.77 11.77 0 0 0 9.86 6.09H90.3a11.73 11.73 0 0 0 9.87-6.06l26.3-45.74a11.73 11.73 0 0 0 0-11.61z" fill="#4285f4"/><path d="M84 39.88l-19.33-6.63-20.46 15.46L57 61.5l-12.83 1.25 12 12L44 76.25l39.27 39.25h7a11.73 11.73 0 0 0 9.87-6.06l19.48-33.88z" fill="#000" opacity=".07"/><g fill="#fff"><path d="M64 28.23L44 39.78v8.93l20 11.54 20-11.54v-8.93zm11.95 15.88L64 51l-11.94-6.89L64 37.21l11.94 6.89z" fill-rule="nonzero"/><path d="M44 53.75v8.93l20 11.55 20-11.55v-8.93L64 65.3z"/><path d="M44 67.29v8.93l20 11.55 20-11.55v-8.93L64 78.84z"/></g></g></svg>