<svg xmlns="http://www.w3.org/2000/svg" viewBox="0 0 128 116"><g fill="none" fill-rule="evenodd"><path fill="#4285F4" d="M126.47 52.12l-26.3-45.74A11.56 11.56 0 0 0 90.31.5H37.7a11.55 11.55 0 0 0-9.86 5.88L1.53 52a11.48 11.48 0 0 0 0 11.44l26.3 46a11.77 11.77 0 0 0 9.86 6.09H90.3a11.73 11.73 0 0 0 9.87-6.06l26.3-45.74a11.73 11.73 0 0 0 0-11.61z"/><path fill="#000" d="M118.92 76.82L75.64 33.53l-3.1 6.72-6.76-6.75-3.12 6.69L56 33.52l-1.66 8.08-5.94 1-1.23 5.28-7.68 1.84 6.88 6.88-6.81 3 6.81 6.81-6.85 2.99 46.1 46.1h4.68a11.73 11.73 0 0 0 9.87-6.06l18.75-32.62z" opacity=".07"/><path fill="#FFF" d="M69.83 51.1H58.42a1.22 1.22 0 0 0-1.21 1.21v11.41c0 .67.54 1.215 1.21 1.22h11.41A1.22 1.22 0 0 0 71 63.72V52.31a1.22 1.22 0 0 0-1.21-1.21"/><path fill="#FFF" fill-rule="nonzero" d="M87.89 50.18A1.09 1.09 0 0 0 89 49.09v-1.78a1.09 1.09 0 0 0-1.09-1.09h-5.57V41a1.22 1.22 0 0 0-1.21-1.21h-5.21v-5.54a1.09 1.09 0 0 0-1.09-1.09h-1.78A1.09 1.09 0 0 0 72 34.25v5.57h-5.9v-5.57a1.09 1.09 0 0 0-1.1-1.09h-1.76a1.09 1.09 0 0 0-1.09 1.09v5.57h-5.86v-5.57a1.09 1.09 0 0 0-1.09-1.09h-1.78a1.09 1.09 0 0 0-1.09 1.09v5.57h-5.2A1.22 1.22 0 0 0 45.91 41v5.19h-5.55a1.09 1.09 0 0 0-1.09 1.09v1.78a1.09 1.09 0 0 0 1.09 1.09h5.55V56h-5.55a1.09 1.09 0 0 0-1.09 1.09v1.81a1.09 1.09 0 0 0 1.09 1.1h5.55v5.86h-5.55a1.09 1.09 0 0 0-1.09 1.09v1.78a1.09 1.09 0 0 0 1.09 1.09h5.55V75a1.22 1.22 0 0 0 1.21 1.21h5.21v5.57c0 .602.488 1.09 1.09 1.09h1.78a1.09 1.09 0 0 0 1.09-1.09v-5.57h5.86v5.57c0 .602.488 1.09 1.09 1.09H65a1.09 1.09 0 0 0 1.09-1.09v-5.57H72v5.57c0 .602.488 1.09 1.09 1.09h1.78a1.09 1.09 0 0 0 1.09-1.09v-5.57h5.21A1.22 1.22 0 0 0 82.34 75v-5.19h5.55A1.09 1.09 0 0 0 89 68.72v-1.78a1.09 1.09 0 0 0-1.09-1.09h-5.57V60h5.55A1.09 1.09 0 0 0 89 58.9v-1.77A1.09 1.09 0 0 0 87.89 56h-5.55v-5.82h5.55zm-9.65 22H50V43.9h28.24v28.28z"/></g></svg>