<svg viewBox="0 0 128 116" xmlns="http://www.w3.org/2000/svg"><g fill="none" fill-rule="evenodd"><path d="M126.47 52.12l-26.3-45.74A11.56 11.56 0 0 0 90.31.5H37.7a11.55 11.55 0 0 0-9.86 5.88L1.53 52a11.48 11.48 0 0 0 0 11.44l26.3 46a11.77 11.77 0 0 0 9.86 6.09H90.3a11.73 11.73 0 0 0 9.87-6.06l26.3-45.74a11.73 11.73 0 0 0 0-11.61z" fill="#4285f4"/><path d="M68.1 34.19l-4-.73-4.1 8.7 3.47 3.47-1 5.62L68.22 57 52.7 58.57 48.11 54l-8 8.06 53.05 53.05a12.26 12.26 0 0 0 7.05-5.65L115.94 82z" fill="#000" opacity=".07"/><g fill="#fff" transform="translate(38 32)"><circle cx="26" cy="6.1" r="5.69"/><circle cx="26" cy="45.92" r="5.69"/><circle cx="6.09" cy="26.01" r="5.69"/><circle cx="45.91" cy="26.01" r="5.69"/><path d="M24.55 47.48L1.04 24.17h39.99L24.55 7.66l2.9-3.07 23.52 23.26h-40l16.48 16.56z"/><path d="M24.51 32.75h2.45v13.49h-2.45zm0-26.98h2.45v13.49h-2.45z" fill-rule="nonzero"/></g></g></svg>