<svg xmlns="http://www.w3.org/2000/svg" viewBox="0 0 128 116"><g fill="none" fill-rule="evenodd"><path fill="#4285F4" d="M126.47 52.12l-26.3-45.74A11.56 11.56 0 0 0 90.31.5H37.7a11.55 11.55 0 0 0-9.86 5.88L1.53 52a11.48 11.48 0 0 0 0 11.44l26.3 46a11.77 11.77 0 0 0 9.86 6.09H90.3a11.73 11.73 0 0 0 9.87-6.06l26.3-45.74a11.73 11.73 0 0 0 0-11.61z"/><path fill="#000" d="M80.18 29L68 35l-6-6-21.14 12 4.64 4.64L33.9 63l7.1 7.06L47.82 87l28.5 28.5h14a11.73 11.73 0 0 0 9.87-6.06l22.07-38.38L80.18 29z" opacity=".07"/><path fill="#FFF" fill-rule="nonzero" d="M79.93 68l2.92-5H94.1l2.9-5-7.54-13H77.73l-3.4-6H71v-4h5.67l3.39 6h7.08l-6.96-12H66v17h6.02l2.33 4H66v8h7.6l3.46-6h9.32l2.31 4h-9.32l-3.47 6H66v15h12.49l-2.31 4H66v6h14.18l11.6-20h-6.63l-2.93 5H71v-4h8.93zm-31.86 0l-2.92-5H33.9L31 58l7.54-13h11.73l3.4-6H57v-4h-5.67l-3.39 6h-7.08l6.96-12H62v17h-6.02l-2.33 4H62v8h-7.6l-3.46-6h-9.32l-2.32 4h9.33l3.47 6H62v15H49.51l2.31 4H62v6H47.82l-11.6-20h6.63l2.93 5H57v-4h-8.93z"/></g></svg>