<svg viewBox="0 0 128 116" xmlns="http://www.w3.org/2000/svg"><g fill="none" fill-rule="evenodd"><path d="M126.47 52.12l-26.3-45.74A11.56 11.56 0 0 0 90.31.5H37.7a11.55 11.55 0 0 0-9.86 5.88L1.53 52a11.48 11.48 0 0 0 0 11.44l26.3 46a11.77 11.77 0 0 0 9.86 6.09H90.3a11.73 11.73 0 0 0 9.87-6.06l26.3-45.74a11.73 11.73 0 0 0 0-11.61z" fill="#4285f4"/><path d="M92.92 38.09L63.46 27.9 37.22 39.3 37 47.08v11.4l1.81 10.13 3.07 7.06 5.62 10.57L76.06 115h14.19a11.5 11.5 0 0 0 10-5.75l23.4-40.52z" fill="#000" opacity=".07"/><g fill="#fff"><path d="M64 59.43a8.77 8.77 0 1 1 8.76-8.78A8.78 8.78 0 0 1 64 59.43zm0-13a4.22 4.22 0 1 0 4.22 4.22A4.23 4.23 0 0 0 64 46.44z" fill-rule="nonzero"/><path d="M64 95.3l-.54-.13C47.26 91.23 35 75 35 57.39V38.14l29-12.88 28.94 12.88V57.4c0 17.57-12.21 33.82-28.4 37.77zM39.6 41.08v16.31c0 15.35 10.45 29.53 24.4 33.23 14-3.7 24.4-17.88 24.4-33.23V41.08L64 30.23z" fill-rule="nonzero"/><path d="M61.73 56.62h4.54v22.13h-4.54z"/><path d="M54.78 64.44h8.24v4.54h-8.24zm3.01 6.5h6.86v4.54h-6.86z" fill-rule="nonzero"/></g></g></svg>