<svg viewBox="0 0 128 116" xmlns="http://www.w3.org/2000/svg"><g fill="none" fill-rule="evenodd"><path d="M126.474 52.12L100.169 6.378A11.555 11.555 0 0 0 90.306.5h-52.61a11.549 11.549 0 0 0-9.864 5.876L1.527 52.026a11.475 11.475 0 0 0-.002 11.437l26.305 45.95a11.773 11.773 0 0 0 9.864 6.087h52.608a11.726 11.726 0 0 0 9.866-6.06l26.303-45.745a11.728 11.728 0 0 0 .003-11.575z" fill="#4285f4"/><path d="M93.122 35.092L79.9 44.734 59.168 24 34.214 53.5 46.42 65.706l-.103 18.233L77.879 115.5h12.423a11.726 11.726 0 0 0 9.866-6.06l24.57-42.731z" fill="#000" opacity=".07"/><g fill="#fff"><path d="M68.168 40.633A17.958 17.958 0 0 1 81.035 53.5h12.087V35.092L68.168 24zM46.301 53.5a17.958 17.958 0 0 1 12.867-12.867V24.001L34.214 35.09V53.5zm12.867 21.867A17.958 17.958 0 0 1 46.301 62.5H34.986c2.647 13.433 11.93 25.19 24.182 30.058zM81.035 62.5a17.958 17.958 0 0 1-12.867 12.867v17.191C80.419 87.69 89.703 75.933 92.35 62.5z" fill-rule="nonzero"/><circle cx="63.668" cy="58" r="9"/></g></g></svg>