<svg viewBox="0 0 128 116" xmlns="http://www.w3.org/2000/svg"><g fill="none" fill-rule="evenodd"><path d="M126.47 52.12l-26.3-45.74A11.56 11.56 0 0 0 90.31.5H37.7a11.55 11.55 0 0 0-9.86 5.88L1.53 52a11.48 11.48 0 0 0 0 11.44l26.3 46a11.77 11.77 0 0 0 9.86 6.09H90.3a11.73 11.73 0 0 0 9.87-6.06l26.3-45.74a11.73 11.73 0 0 0 0-11.61z" fill="#4285f4"/><path d="M121.14 73l-32-32L64 32.75l-25.08 8.31L54 56.15v1l-5.47-5.47-11.78 22.14 41.68 41.68h11.91a11.73 11.73 0 0 0 9.87-6.06z" fill="#000" opacity=".07"/><g fill="#fff" fill-rule="nonzero"><path d="M64.04 70.86l11.09-6.4v-12.8l-3.73-2.15-11.09 19.2zm-11.09-19.2v12.8l3.73 2.15 11.09-19.2-3.73-2.15z"/><path d="M61.86 74.66l-13.29-7.67V51.66l-11.82-6.83v28.99l25.11 14.5zM50.74 47.88l13.3-7.68 13.3 7.68 11.83-6.82-25.13-14.51-25.13 14.51zm28.76 3.78v15.33l-13.28 7.67v13.66l25.11-14.5V44.84z"/></g></g></svg>