<svg viewBox="0 0 128 116" xmlns="http://www.w3.org/2000/svg"><g fill="none" fill-rule="evenodd"><path d="M126.47 52.12l-26.3-45.74A11.56 11.56 0 0 0 90.31.5H37.7a11.55 11.55 0 0 0-9.86 5.88L1.53 52a11.48 11.48 0 0 0 0 11.44l26.3 46a11.77 11.77 0 0 0 9.86 6.09H90.3a11.73 11.73 0 0 0 9.87-6.06l26.3-45.74a11.73 11.73 0 0 0 0-11.61z" fill="#4285f4"/><path d="M89 38.84L50 38l-3 34.5 2.27 7.8 35.2 35.2h5.83a11.73 11.73 0 0 0 9.87-6.06l21.7-37.73z" fill="#000" opacity=".07"/><path d="M64 27.73L39 38.84v16.67c0 15.42 10.67 29.83 25 33.33 14.33-3.5 25-17.92 25-33.33V38.84zm0 11.77a8 8 0 1 1 0 16 8 8 0 0 1 0-16zm15 33.08a1 1 0 0 1-.17.56c-.18.27-.36.55-.56.81A27.87 27.87 0 0 1 64 84.18 27.87 27.87 0 0 1 49.73 74c-.2-.26-.38-.54-.56-.81a1 1 0 0 1-.17-.56v-4.49c0-6.13 10-9.22 15-9.22S79 62 79 68.14z" fill="#fff" fill-rule="nonzero"/></g></svg>