<svg viewBox="0 0 128 116" xmlns="http://www.w3.org/2000/svg"><g fill="none" fill-rule="evenodd"><path d="M126.47 52.12l-26.3-45.74A11.56 11.56 0 0 0 90.31.5H37.7a11.55 11.55 0 0 0-9.86 5.88L1.53 52a11.48 11.48 0 0 0 0 11.44l26.3 46a11.77 11.77 0 0 0 9.86 6.09H90.3a11.73 11.73 0 0 0 9.87-6.06l26.3-45.74a11.73 11.73 0 0 0 0-11.61z" fill="#4285f4"/><path d="M96.59 39l-47.28 8.88-18.4 15.38 6 6-5.46 5 41.26 41.24H90.3a11.73 11.73 0 0 0 9.87-6.06L124.59 67z" fill="#000" opacity=".07"/><g fill="#fff"><path d="M74.2 83.3H54a1 1 0 0 1 0-2h20.2a1 1 0 0 1 0 2z"/><path d="M60.25 73.51h7.74v8.78h-7.74z"/><path d="M85.66 67a1.85 1.85 0 0 1-1.33-.56L70.75 52.33l-9.13 9.6a1.84 1.84 0 0 1-2.5.16l-6.9-5.57-7.31 9.71a1.85 1.85 0 0 1-1.47.74H30.9v5.69a2.47 2.47 0 0 0 2.46 2.46h61.53a2.47 2.47 0 0 0 2.46-2.46V67z"/><path d="M42.51 63.28l7.91-10.5a1.85 1.85 0 0 1 2.63-.33l7.06 5.7 9.29-9.77a1.85 1.85 0 0 1 2.66-.01l14.38 14.9h10.91V40.66a2.47 2.47 0 0 0-2.46-2.46H33.36a2.47 2.47 0 0 0-2.46 2.46v22.62z"/></g></g></svg>