<svg xmlns="http://www.w3.org/2000/svg" viewBox="0 0 128 116"><g fill="none" fill-rule="evenodd"><path fill="#4285F4" d="M126.47 52.12l-26.3-45.74A11.56 11.56 0 0 0 90.31.5H37.7a11.55 11.55 0 0 0-9.86 5.88L1.53 52a11.48 11.48 0 0 0 0 11.44l26.3 46a11.77 11.77 0 0 0 9.86 6.09H90.3a11.73 11.73 0 0 0 9.87-6.06l26.3-45.74a11.73 11.73 0 0 0 0-11.61z"/><path fill="#000" d="M100.17 109.44l17.53-30.49-37.08-37.07L64 37.43 49.07 43 43.3 58l4.64 16.73 40.77 40.77h1.59a11.73 11.73 0 0 0 9.87-6.06z" opacity=".07"/><g fill="#FFF" fill-rule="nonzero"><path d="M64 34.8c-12.806 0-23.188 10.38-23.19 23.187-.002 12.806 10.377 23.19 23.183 23.193C76.8 81.184 87.184 70.806 87.19 58A23.19 23.19 0 0 0 64 34.8m0 40.8A17.6 17.6 0 1 1 81.6 58c0 9.72-7.88 17.6-17.6 17.6"/><path d="M53 57.1v7.21a12.79 12.79 0 0 0 4.38 4.48V57.1H53zm8.67-6.1v19.44a11.78 11.78 0 0 0 4.38 0V51h-4.38zm9.1 9.1v8.56A12.78 12.78 0 0 0 75.15 64v-3.9h-4.38zm9.92 12.19l-2.4 2.41a1.09 1.09 0 0 0 0 1.53l9.11 9.11a1.09 1.09 0 0 0 1.54 0l2.4-2.4a1.09 1.09 0 0 0 0-1.53l-9.12-9.12a1.09 1.09 0 0 0-1.53 0z"/></g></g></svg>