<svg xmlns="http://www.w3.org/2000/svg" viewBox="0 0 128 116"><g fill="none" fill-rule="evenodd"><path fill="#4285F4" d="M126.47 52.12l-26.3-45.74A11.56 11.56 0 0 0 90.31.5H37.7a11.55 11.55 0 0 0-9.86 5.88L1.53 52a11.48 11.48 0 0 0 0 11.44l26.3 46a11.77 11.77 0 0 0 9.86 6.09H90.3a11.73 11.73 0 0 0 9.87-6.06l26.3-45.74a11.73 11.73 0 0 0 0-11.61z"/><path fill="#000" d="M101.27 56l-.69-.21-34.9-34.91-7.16 10.47 6 6-15.27 5.56-6 15.18-5.86-5.86-10.51 9.28 54 54h9.42a11.73 11.73 0 0 0 9.87-6.06l19.91-34.65L101.27 56z" opacity=".07"/><g fill="#FFF" fill-rule="nonzero"><path d="M64 35c-12.703 0-23 10.297-23 23s10.297 23 23 23 23-10.297 23-23-10.297-23-23-23m0 40.53c-9.656.005-17.489-7.814-17.5-17.47-.011-9.656 7.805-17.493 17.46-17.51 9.656-.017 17.498 7.794 17.52 17.45A17.48 17.48 0 0 1 64 75.49m36.14-20.22l-9.61-3a27.15 27.15 0 0 1 .32 9.78h9.3a1.69 1.69 0 0 0 1.43-1.57v-3.63a1.69 1.69 0 0 0-1.43-1.57M64 30.85c1.892.002 3.779.2 5.63.59l-3.45-9.57a1.69 1.69 0 0 0-1.58-1.43h-1.44a1.68 1.68 0 0 0-1.58 1.43l-3 9.53a27.26 27.26 0 0 1 5.4-.54M36.85 58a27.15 27.15 0 0 1 .61-5.75l-9.61 3a1.69 1.69 0 0 0-1.43 1.58v3.63a1.69 1.69 0 0 0 1.43 1.57h9.3a27.18 27.18 0 0 1-.3-4.05"/><path d="M72.23 50.48L70 52.66A8.3 8.3 0 0 0 58.31 64.4l-2.18 2.18a11.384 11.384 0 1 0 16.1-16.1m-4.5 11.25a5.28 5.28 0 1 1 0-7.46 5.24 5.24 0 0 1 0 7.46"/></g></g></svg>