<svg viewBox="0 0 128 116" xmlns="http://www.w3.org/2000/svg"><g fill="none" fill-rule="evenodd"><path d="m126.47 52.12-26.3-45.74a11.56 11.56 0 0 0 -9.86-5.88h-52.61a11.55 11.55 0 0 0 -9.86 5.88l-26.31 45.62a11.48 11.48 0 0 0 0 11.44l26.3 46a11.77 11.77 0 0 0 9.86 6.09h52.61a11.73 11.73 0 0 0 9.87-6.06l26.3-45.74a11.73 11.73 0 0 0 0-11.61z" fill="#4285f4"/><path d="m64.59 19.74-3.45 3.5 8.65 8.65-4 .95 8.6 9.48-3.06.7-10.33-10.34-3.53 3.4 7.37 7.37-6.65-.08-4.39 2.57 4.36 4.36-14.33 24.89 4.17 11.08 29.2 29.23h13.1a11.73 11.73 0 0 0 9.87-6.06l19.76-34.37z" fill="#000" opacity=".07"/><g fill="#fff" transform="translate(42 18)"><circle cx="17.14" cy="16.26" r="2.45"/><circle cx="26.39" cy="12.22" r="3.68"/><circle cx="20.82" cy="3.43" r="2.45"/><path d="m31.14 58-1.73-3h11.86l-11.8-20.44h-.41l10.15 17.44h-26.4l-3.16 5.48c-.22.38-.22.85 0 1.23l3.85 6.67h25.35l4.2-7.28-.05-.1z"/><path d="m43.52 56.73-13.38-23.19a1.23 1.23 0 0 1 -.17-.61v-4.93h2a.5.5 0 0 0 .5-.5v-2.82a.5.5 0 0 0 -.5-.5h-19.89a.5.5 0 0 0 -.5.5v2.82a.5.5 0 0 0 .5.5h2v4.93a1.22 1.22 0 0 1 -.17.61l-13.44 23.19a2.46 2.46 0 0 0 0 2.45l4.89 8.47a2.46 2.46 0 0 0 2.12 1.22h29a2.45 2.45 0 0 0 2.12-1.22l4.89-8.47a2.44 2.44 0 0 0 .03-2.45zm-4.18 1.74-3.34 5.77a1.22 1.22 0 0 1 -1.06.61h-25.94a1.22 1.22 0 0 1 -1-.61l-3.34-5.77a1.23 1.23 0 0 1 0-1.23l13-22.47c.218-.37.336-.79.34-1.22v-5.55h8v5.55c.001.432.115.856.33 1.23l13 22.47c.222.374.23.838.02 1.22z" fill-rule="nonzero"/><path d="m21.55 41.95h11.97l-1.8-2.84h-11.81z"/><path d="m24 46 1.72 2.97h12.21l-1.77-2.97z"/></g></g></svg>