<svg viewBox="0 0 128 116" xmlns="http://www.w3.org/2000/svg"><g fill="none" fill-rule="evenodd"><path d="M126.47 52.1l-26.3-45.74A11.56 11.56 0 0 0 90.31.48H37.7a11.55 11.55 0 0 0-9.86 5.88L1.53 52a11.48 11.48 0 0 0 0 11.44l26.3 46a11.77 11.77 0 0 0 9.86 6.09H90.3a11.73 11.73 0 0 0 9.87-6.06l26.3-45.74a11.73 11.73 0 0 0 0-11.63z" fill="#4285f4"/><path d="M88.86 40.6l-7 .32-7.16-7.16-34 12.74-1.6 9.61 9.9 9.84-2.9 4.43-1.59 3.71.26 3.26 38.13 38.13h7.4a11.73 11.73 0 0 0 9.87-6.06l21-36.52z" fill="#000" opacity=".07"/><g fill="#fff" fill-rule="nonzero"><path d="M65.46 74.89V59.23h-3v15.66a5.88 5.88 0 1 0 3 0zm-1.54 8.56a2.87 2.87 0 1 1 0-5.74 2.87 2.87 0 0 1 0 5.74zM80.5 67.56v-8.3h-3v8.31a5.88 5.88 0 1 0 3 0zM79 76.12a2.87 2.87 0 1 1 0-5.74 2.87 2.87 0 0 1 0 5.74zm-28.52-8.46v-8.41h-3v8.32a5.88 5.88 0 1 0 7.38 5.68 5.71 5.71 0 0 0-4.38-5.59zM49 76.12a2.87 2.87 0 1 1 0-5.74 2.87 2.87 0 0 1 0 5.74z"/><path d="M81.21 37.45c-1.18 0-2.352.193-3.47.57a14.87 14.87 0 0 0-27 .19 10.89 10.89 0 1 0-4 21h.69v-8a3.24 3.24 0 1 1 3 0v8.06h27v-8a3.24 3.24 0 1 1 3 0v8h.71c6.014 0 10.89-4.876 10.89-10.89s-4.876-10.89-10.89-10.89zm-15.75 9.18v12.6h-3v-12.6a3.24 3.24 0 1 1 3 0z"/></g></g></svg>