<svg viewBox="0 0 170 171" xmlns="http://www.w3.org/2000/svg"><mask id="a" fill="#fff"><path d="M0 170.667V0h169.536v170.667z" fill-rule="evenodd"/></mask><g fill="none" fill-rule="evenodd" mask="url(#a)" transform="matrix(1 0 0 -1 0 170.667)"><path d="M46.457 124.204l-11.03 11.03.047-79.733.132-3.727c.054-1.753.38-3.732.923-5.782l87.402-30.82 21.848 9.68.008.027z" fill="#55c5a9"/><path d="M145.779 24.852l-21.848-9.68-87.397 30.814c1.67-6.405 5.365-13.605 9.342-17.542L74.399.084 137.819 0l7.968 24.879zm-109.25 21.14l.005-.006c-.005.037-.023.077-.023.113a.27.27 0 0 1 .018-.107z" fill="#72cfb9" fill-rule="nonzero"/><path d="M35.427 135.24L1.457 83.924c-2.822-3.015-1.42-9.233 3.127-13.815l19.612-19.775 12.333-4.342c-.543 2.05-.869 4.03-.923 5.782l-.132 3.727-.047 79.734z" fill="#3a7fca"/><path d="M124.649 134.21c-2.051.525-4.017.847-5.801.905l-3.938.136-79.483-.011L145.799 24.879h.008l9.693 21.869-30.851 87.463" fill="#0f80cc"/><path d="M142.182 124.847c-4.007 4.038-11.112 7.708-17.529 9.36l30.847-87.46-9.693-21.868h-.008l23.687 7.565.05 64.943zm-17.634 9.385c.044-.01.076-.021.105-.025l-.004.004c-.025.01-.057.01-.1.021z" fill="#4ba5e0" fill-rule="nonzero"/><path d="M120.327 146.47l-19.77 19.623c-4.57 4.53-10.793 5.938-13.799 3.123l-51.33-33.976 79.482.01 3.938-.135c1.784-.058 3.75-.38 5.8-.904l-4.321 12.258" fill="#55c5a9"/></g></svg>