<svg viewBox="0 0 32 32" xmlns="http://www.w3.org/2000/svg"><clipPath id="a"><path d="M16.85 8.53h-3.27A1.44 1.44 0 0 0 12.15 10v4.23H7.42A1.41 1.41 0 0 0 6 15.6v4.73H1.75a1.41 1.41 0 0 0-1.41 1.41V25a1.44 1.44 0 0 0 1.41 1.43h15.1A1.44 1.44 0 0 0 18.29 25V10a1.44 1.44 0 0 0-1.44-1.47z"/></clipPath><linearGradient id="b" gradientUnits="userSpaceOnUse" x1="9.11" x2="17.86" y1="17.29" y2="26.04"><stop offset="0" stop-color="#bf360c" stop-opacity=".2"/><stop offset=".28" stop-color="#bf360c" stop-opacity=".12"/><stop offset=".67" stop-color="#bf360c" stop-opacity=".05"/><stop offset="1" stop-color="#bf360c" stop-opacity=".02"/></linearGradient><linearGradient id="c" gradientUnits="userSpaceOnUse" x2="17.95" y1="23.07" y2="23.07"><stop offset="0" stop-color="#fff" stop-opacity=".1"/><stop offset=".14" stop-color="#fff" stop-opacity=".08"/><stop offset=".61" stop-color="#fff" stop-opacity=".02"/><stop offset="1" stop-color="#fff" stop-opacity="0"/></linearGradient><path d="M-334-139h1392v448H-334z" fill="none"/><g clip-path="url(#a)" transform="matrix(1.7827 0 0 1.7877 -.6 -15.25)"><path d="M16.85 8.53h-3.27A1.44 1.44 0 0 0 12.15 10v16.47h4.7A1.44 1.44 0 0 0 18.29 25V10a1.44 1.44 0 0 0-1.44-1.47z" fill="#f57c00"/><path d="M6 15.6v4.73H1.75a1.41 1.41 0 0 0-1.41 1.41V25a1.44 1.44 0 0 0 1.41 1.43h10.4V14.19H7.42A1.41 1.41 0 0 0 6 15.6z" fill="#ffc107"/><path d="M13.57 26.47h3.28A1.44 1.44 0 0 0 18.29 25v-4.65l-6.14-6.15v12.27z" fill="url(#b)"/><path d="M7.43 14.31h4.71v-.12H7.43A1.41 1.41 0 0 0 6 15.6v.12a1.41 1.41 0 0 1 1.43-1.41zm-5.68 6.14H6v-.12H1.75a1.41 1.41 0 0 0-1.41 1.41v.12a1.41 1.41 0 0 1 1.41-1.41zm15.1-11.92h-3.27A1.44 1.44 0 0 0 12.15 10v.12a1.44 1.44 0 0 1 1.44-1.44h3.26a1.44 1.44 0 0 1 1.44 1.44V10a1.44 1.44 0 0 0-1.44-1.47z" fill="#fff" opacity=".2"/><path d="M16.86 26.35H1.76a1.41 1.41 0 0 1-1.41-1.4v.12a1.41 1.41 0 0 0 1.41 1.41h15.1A1.44 1.44 0 0 0 18.29 25v-.08a1.44 1.44 0 0 1-1.43 1.43z" fill="#bf360c" opacity=".2"/></g><path d="M-2.02 3.17h22.67v22.67H-2.02z" fill="none"/><path d="M16.51 14.1h-3.27a1.44 1.44 0 0 0-1.43 1.47v4.23H7.08a1.41 1.41 0 0 0-1.42 1.37v4.73H1.41A1.41 1.41 0 0 0 0 27.31v3.26A1.44 1.44 0 0 0 1.41 32h15.1a1.44 1.44 0 0 0 1.44-1.43v-15a1.44 1.44 0 0 0-1.44-1.47z" fill="url(#c)"/></svg>