<svg viewBox="0 0 67 68" xmlns="http://www.w3.org/2000/svg"><g fill="none" fill-rule="evenodd"><rect fill="#34a853" height="58.905" rx="5.238" width="58.905" y="8.344"/><path d="M29.842 37.258L1.43 65.67a5.114 5.114 0 0 0 3.705 1.58H53.77c1.66 0 3.126-.784 4.064-1.998z" fill="#4285f4"/><path d="M49.703.1C40.622.1 33.26 7.127 33.26 15.796c.007 2.707.65 5.365 2.051 7.718.422.69.815 1.38 1.166 2.066.327.491.638.985.931 1.478.337.467.66.937.969 1.41 1.284 1.734 2.45 3.433 3.565 5.066.777 1.25 1.65 2.587 2.417 3.91 2.316 4.013 3.927 7.932 4.508 13.638v.012c.179.404.507.652.862.654.395-.001.753-.308.911-.783.591-5.642 2.194-9.536 4.494-13.52.767-1.324 1.64-2.661 2.417-3.911 1.114-1.633 2.28-3.332 3.565-5.066.308-.473.632-.943.969-1.41.293-.493.604-.987.93-1.478a31.55 31.55 0 0 1 1.167-2.066c1.397-2.354 1.96-5.012 1.964-7.718C66.146 7.127 58.784.1 49.703.1z" fill="#ea4335"/><ellipse cx="49.703" cy="15.796" fill="#811411" rx="5.712" ry="5.453"/><path d="M13.987 14.111c-4.578 0-8.29 3.777-8.29 8.435 0 4.659 3.712 8.435 8.29 8.435 2.982 0 4.71-.938 6.21-2.465 1.5-1.526 2.047-3.835 2.047-6.164 0-.356-.023-.709-.063-1.058h-8.093v2.982h4.753c-.193.743-.52 1.421-1.036 1.946-.924.94-1.988 1.518-3.824 1.518-2.819 0-5.104-2.326-5.104-5.194s2.285-5.193 5.104-5.193c1.37 0 2.566.398 3.513 1.267l2.334-2.334-.004-.004c-1.557-1.494-3.548-2.17-5.837-2.17z" fill="#fff"/><path d="M38.375 28.466l-7.82 7.82 27.91 27.91c.28-.636.44-1.34.44-2.082V31.569c-.46.661-.915 1.322-1.354 1.965-.777 1.25-1.65 2.587-2.417 3.91-2.3 3.985-3.903 7.88-4.494 13.521-.158.475-.516.781-.911.783-.355-.001-.683-.25-.861-.654l-.001-.012c-.58-5.706-2.192-9.625-4.508-13.637-.767-1.324-1.64-2.661-2.417-3.911-1.114-1.633-2.281-3.332-3.565-5.066l-.002-.003z" fill="#9aa0a6"/><path d="M35.252 37.438l-6.029 6.029 23.781 23.781h.766a5.123 5.123 0 0 0 5.135-5.134V61.09z" fill="#fff"/><path d="M0 61.32v.795a5.123 5.123 0 0 0 5.135 5.134h.994l34.957-34.957c-.86-1.25-1.745-2.52-2.71-3.823a36.829 36.829 0 0 0-.968-1.41 35.92 35.92 0 0 0-.93-1.478c-.083-.16-.174-.32-.26-.48z" fill="#fbbc05"/></g></svg>