<svg viewBox="0 0 175 187" xmlns="http://www.w3.org/2000/svg"><g fill="none" fill-rule="evenodd"><path d="M68.1 83.6C57.5 69 42.8 56.2 26.1 47.3c-2.5-1.4-5.4-2.1-8.3-2.1-6.5 0-12.4 3.5-15.5 9.3C-2.3 63 1 73.7 9.5 78.2c25.7 13.8 42.3 40 44.3 70.4v-.1c-.3-3.4.3-6.7 1.8-9.8.2-.4.5-.9.8-1.4 8-13.2 12.3-28.4 12.3-44 0-3.3-.3-6.5-.6-9.7" fill="#4285f4"/><path d="M169.9 50.6c-3.1-13.6-7.7-26.8-13.7-39.4C153 4.5 146.1.1 138.7.1c-2.9 0-5.7.6-8.3 1.9-9.7 4.6-13.8 16.2-9.2 25.8 9.8 20.8 14.7 42.7 14.7 65.5s-4.9 44.7-14.5 65.1c-.1.3-1.8 3.9-1.8 8.1 0 1.2.1 2.9.5 4.5 1.3 5.5 4.8 10.5 10.6 13.2 2.6 1.2 5.4 1.9 8.3 1.9 7.1 0 13.6-3.9 17-10.1 3.9-7.3 7.8-16.8 11.2-29.1 1.1-3.7 2-7.2 2.8-10.9 3.1-13.9 4.8-28.1 4.8-42.7-.1-14.4-1.8-28.9-4.9-42.7" fill="#34a853"/><path d="M88 30.3c-.3-.6-.7-1.1-1.1-1.6-1.3-1.7-2.8-3.1-4.6-4.2-2.9-1.9-6.4-3-10-3-3 0-4.5.4-6.6 1.2-2.2.9-4.5 2.1-6.6 4.3s-3.3 4.4-4.2 6.8c-1.8 4.7-1.5 10.8 1.5 15.8C62.8 59.9 66.6 71.7 68 83.8c.4 3.2.6 6.5.6 9.7 0 15.6-4.2 30.8-12.3 44-.3.5-.5.9-.8 1.4-1.6 3.1-2.1 6.6-1.8 9.9.5 5.6 3.6 10.9 8.8 14.1 1.3.8 2.8 1.4 4.2 1.9 1.7.5 3.5.8 5.3.8 6.5 0 12.4-3.3 15.8-8.9C98 140 103.9 121 105.2 101.5c.2-2.6.3-5.3.3-7.9.1-22.6-6-44.4-17.5-63.3" fill="#ea4335"/><path d="M121.3 158.4c9.7-20.4 14.6-42.3 14.6-65.1 0-7.8-.5-13.5-.9-17.2-12.7-20.3-31.1-38.5-52.7-51.7 0 0 .5.3.5.4 1.5 1.1 2.7 2.2 4.1 3.9.3.4.8 1 1.1 1.6 11.5 19 17.5 40.7 17.5 63 0 2.7-.1 5.3-.3 7.9 9.2 17.5 14.2 37.4 14.2 58.3v6.3c.1-2.2.6-4.5 1.4-6.5.3-.3.4-.6.5-.9" fill="#fbbc05"/></g></svg>