<svg viewBox="0 0 77 78" xmlns="http://www.w3.org/2000/svg"><path d="M39.672 77.648c-7.073 0-13.579-1.665-19.518-4.995-5.94-3.33-10.661-7.931-14.163-13.803C2.489 52.98.738 46.405.738 39.126s1.751-13.853 5.253-19.724C9.493 13.53 14.214 8.93 20.154 5.598 26.094 2.27 32.599.604 39.672.604c5.768 0 11.038 1.013 15.81 3.038 4.773 2.026 8.876 4.893 12.309 8.601l-9.579 9.373c-2.472-2.61-5.201-4.566-8.189-5.871-2.987-1.305-6.471-1.957-10.454-1.957-4.532 0-8.686 1.047-12.463 3.142-3.777 2.094-6.78 5.08-9.013 8.96-2.231 3.88-3.347 8.292-3.347 13.236s1.133 9.356 3.399 13.236 5.304 6.866 9.116 8.96c3.81 2.095 7.982 3.142 12.514 3.142 6.867 0 12.497-2.026 16.892-6.077 1.373-1.236 2.575-2.815 3.605-4.738s1.785-4.017 2.266-6.283H39.363V35.521h36.153c.48 1.923.721 4.086.721 6.489 0 4.875-.738 9.407-2.215 13.596-1.476 4.189-3.725 7.862-6.746 11.021-3.296 3.57-7.279 6.3-11.948 8.189-4.67 1.888-9.888 2.832-15.656 2.832z" fill="#9aa0a6" fill-rule="evenodd"/></svg>