<svg xmlns="http://www.w3.org/2000/svg" viewBox="0 0 888 889"><path fill="#484848" fill-rule="evenodd" d="M434.18 888.394C193.5 883.17 0 686.433 0 444.5 0 199.286 198.786.5 444 .5s444 198.786 444 444c0 214.316-151.845 393.166-353.82 434.836V448.902h49.343l1.85-.137c46.493-3.454 84.639-23.295 110.44-55.536 21.905-27.371 33.278-61.91 33.343-95.73.052-6.152-.486-14.31-2.073-23.944-2.537-15.402-7.21-30.839-14.749-45.694-23.174-45.671-67.522-74.095-129.78-74.095-48.67 0-87.34 17.616-112.887 50.742-19.718 25.567-29.446 56.717-33.324 94.199-1.623 15.687-2.078 28.266-2.152 50.195H294.68c-97.742 0-176.977 79.235-176.977 176.977 0 48.432 15.05 89.685 45.621 120.802 29.198 29.718 77.004 52.298 137.252 55.985v-98.8c-31.886-4.984-53.398-14.524-65.918-27.268-11.147-11.345-16.955-27.265-16.955-50.72 0-42.512 34.464-76.976 76.977-76.976h139.5v439.492zm145.44-539.492h-45.428c.069-18.41.438-28.482 1.62-39.904 2.138-20.67 6.659-35.144 13.041-43.42 2.654-3.44 5.674-5.871 9.712-7.71 5.626-2.564 13.423-4.102 23.99-4.102 13.794 0 23.15 2.552 29.615 6.696 4.621 2.962 8.17 7.095 10.988 12.65 2.523 4.971 4.278 10.77 5.255 16.696.353 2.148.572 4.117.683 5.808.033.512.052.93.06 1.24v.351c0 11.874-4.115 24.413-11.42 33.54-8.073 10.088-20.063 16.498-38.116 18.155z"/></svg>