<svg viewBox="0 0 414 286" xmlns="http://www.w3.org/2000/svg"><g fill="none" fill-rule="evenodd"><path d="M83.157 143l-41.279 71.5L83.157 286l41.279-71.5z" fill="#303f9f"/><path d="M330.842 0l-41.281 71.5 41.281 71.5 41.279-71.5z" fill="#3f51b5"/><path d="M372.121 71.5L248.278 286h82.564L413.4 143z" fill="#7986cb"/><path d="M248.278 0L83.157 286h82.564L330.842 0z" fill="#ff4081"/><path d="M83.157 0L.596 143l41.282 71.5L165.721 0z" fill="#536dfe"/><path d="M248.278 0l41.283 71.5L330.842 0z" fill="#fff" fill-opacity=".2"/><path d="M207 71.5L248.278 0l41.283 71.5z" fill="#fff" fill-opacity=".1"/><path d="M207 71.5l41.278 71.5 41.283-71.5z"/><g fill="#000"><path d="M165.721 143L207 71.5l41.278 71.5z" fill-opacity=".1"/><path d="M165.721 143L207 214.5l41.278-71.5z" fill-opacity=".2"/><path d="M124.438 214.5l41.283-71.5L207 214.5z" fill-opacity=".3"/><path d="M124.438 214.5l41.283 71.5L207 214.5z" fill-opacity=".4"/><path d="M83.157 286l41.281-71.5 41.283 71.5z" fill-opacity=".5"/></g><path d="M83.157 0l41.281 71.5L165.721 0z" fill="#fff" fill-opacity=".2"/><path d="M41.878 71.5L83.157 0l41.281 71.5z" fill="#fff" fill-opacity=".1"/><path d="M41.878 71.5L83.157 143l41.281-71.5z"/><path d="M.598 143l41.28-71.5L83.157 143z" fill="#000" fill-opacity=".1"/><path d="M.598 143l41.28 71.5L83.157 143z" fill="#000" fill-opacity=".2"/><path d="M124.438 214.5L83.157 143l-41.279 71.5z"/><path d="M124.438 214.5L83.157 286l-41.279-71.5zm247.683-143L330.842 0l-41.281 71.5z" fill="#000" fill-opacity=".2"/><path d="M372.121 71.5L330.842 143l-41.281-71.5z"/><path d="M330.842 143l41.279-71.5L413.4 143z" fill="#fff" fill-opacity=".2"/><path d="M330.842 143l41.279 71.5L413.4 143z" fill="#fff" fill-opacity=".1"/><path d="M289.561 214.5l41.281-71.5 41.279 71.5z"/><g fill="#000"><path d="M289.561 214.5l41.281 71.5 41.279-71.5z" fill-opacity=".1"/><path d="M248.278 286l41.283-71.5 41.281 71.5z" fill-opacity=".2"/></g></g></svg>