<svg viewBox="0 0 534 267" xmlns="http://www.w3.org/2000/svg"><path d="m248.519.356c-10.038 0-18.172 8.076-18.172 18.042v34.726c0 9.959 8.134 18.044 18.172 18.044h36.093c10.037 0 18.185-8.085 18.185-18.044v-34.726c0-9.966-8.148-18.042-18.185-18.042h-36.093zm88.715 54.946c-7.54 0-13.654 6.177-13.654 13.775v26.499c0 7.606 6.115 13.777 13.654 13.777h27.118c7.54 0 13.65-6.171 13.65-13.777v-26.5c0-7.597-6.11-13.774-13.65-13.774zm-168.457 0c-7.537 0-13.652 6.177-13.652 13.775v26.499c0 7.606 6.115 13.777 13.652 13.777h27.117c7.536 0 13.654-6.171 13.654-13.777v-26.5c0-7.597-6.118-13.774-13.654-13.774zm79.742 30.395c-10.038 0-18.172 8.072-18.172 18.043v34.724c0 9.964 8.134 18.047 18.172 18.047h36.093c10.037 0 18.185-8.083 18.185-18.047v-34.724c0-9.971-8.148-18.043-18.185-18.043zm158.475 16.279c-5.607 0-10.153 4.585-10.153 10.248v19.713c0 5.65 4.546 10.24 10.153 10.24h20.174c5.604 0 10.152-4.59 10.152-10.24v-19.713c0-5.663-4.548-10.248-10.152-10.248zm-300.14 0c-5.606 0-10.157 4.585-10.157 10.248v19.713c0 5.65 4.55 10.24 10.156 10.24h20.168c5.613 0 10.158-4.59 10.158-10.24v-19.713c0-5.663-4.545-10.248-10.158-10.248h-20.168zm230.38 20.747c-7.54 0-13.654 6.166-13.654 13.765v26.508c0 7.6 6.115 13.769 13.654 13.769h27.118c7.54 0 13.65-6.17 13.65-13.77v-26.507c0-7.599-6.11-13.765-13.65-13.765zm-168.457 0c-7.537 0-13.652 6.166-13.652 13.765v26.508c0 7.6 6.115 13.769 13.652 13.769h27.117c7.536 0 13.654-6.17 13.654-13.77v-26.507c0-7.599-6.118-13.765-13.654-13.765zm238.217 33.392c-5.607 0-10.153 4.583-10.153 10.239v19.713c0 5.652 4.546 10.242 10.153 10.242h20.174c5.604 0 10.152-4.59 10.152-10.242v-19.713c0-5.656-4.548-10.24-10.152-10.24h-20.174zm-300.14 0c-5.606 0-10.157 4.583-10.157 10.239v19.713c0 5.652 4.55 10.242 10.156 10.242h20.168c5.613 0 10.158-4.59 10.158-10.242v-19.713c0-5.656-4.545-10.24-10.158-10.24h-20.168zm141.665 14.18c-10.038 0-18.172 8.08-18.172 18.046v34.726c0 9.965 8.134 18.039 18.172 18.039h36.093c10.037 0 18.185-8.074 18.185-18.039v-34.726c0-9.966-8.148-18.046-18.185-18.046zm218.094 14.836c-4.17 0-7.543 3.408-7.543 7.606v14.633c0 4.198 3.373 7.6 7.543 7.6h14.974c4.158 0 7.528-3.402 7.528-7.6v-14.633c0-4.198-3.37-7.606-7.528-7.606zm-414.175 0c-4.164 0-7.537 3.408-7.537 7.606v14.633c0 4.198 3.373 7.6 7.537 7.6h14.967c4.167 0 7.539-3.402 7.539-7.6v-14.633c0-4.198-3.372-7.606-7.539-7.606h-14.967zm284.796 5.024c-7.54 0-13.654 6.162-13.654 13.763v26.502c0 7.607 6.115 13.774 13.654 13.774h27.118c7.54 0 13.65-6.167 13.65-13.774v-26.502c0-7.6-6.11-13.763-13.65-13.763zm-168.457 0c-7.537 0-13.652 6.162-13.652 13.763v26.502c0 7.607 6.115 13.774 13.652 13.774h27.117c7.536 0 13.654-6.167 13.654-13.774v-26.502c0-7.6-6.118-13.763-13.654-13.763zm238.217 20.503c-5.607 0-10.153 4.595-10.153 10.256v19.709c0 5.662 4.546 10.24 10.153 10.24h20.174c5.604 0 10.152-4.578 10.152-10.24v-19.709c0-5.66-4.548-10.256-10.152-10.256zm-300.14 0c-5.606 0-10.157 4.595-10.157 10.256v19.709c0 5.662 4.55 10.24 10.156 10.24h20.168c5.613 0 10.158-4.578 10.158-10.24v-19.709c0-5.66-4.545-10.256-10.158-10.256h-20.168zm359.76 19.041c-4.17 0-7.544 3.404-7.544 7.602v14.634c0 4.19 3.373 7.606 7.543 7.606h14.974c4.158 0 7.528-3.416 7.528-7.606v-14.633c0-4.199-3.37-7.603-7.528-7.603h-14.974zm-414.176 0c-4.164 0-7.537 3.404-7.537 7.602v14.634c0 4.19 3.373 7.606 7.537 7.606h14.967c4.167 0 7.539-3.416 7.539-7.606v-14.633c0-4.199-3.372-7.603-7.539-7.603h-14.967zm463.61 14.622c-3.143 0-5.697 2.567-5.697 5.736v11.04c0 3.16 2.554 5.732 5.697 5.732h11.295c3.13 0 5.682-2.573 5.682-5.732v-11.04c0-3.169-2.552-5.736-5.682-5.736zm-509.365 0c-3.141 0-5.691 2.567-5.691 5.736v11.04c0 3.16 2.55 5.732 5.69 5.732h11.288c3.142 0 5.685-2.573 5.685-5.732v-11.04c0-3.169-2.543-5.736-5.685-5.736h-11.287z" fill="#42afeb"/></svg>