<svg viewBox="0 0 115 123" xmlns="http://www.w3.org/2000/svg"><g fill="none"><path d="M65.461 18.898v18.897l32.73 18.898V37.795zM0 37.795v18.898l16.365 9.449V47.244zm49.096 9.449l-16.365 9.449v56.693l16.365 9.448V85.04l16.365 9.449V75.59l-16.365-9.448z" fill="#e55b2d"/><path d="M65.461 18.898L16.365 47.244v18.898l32.731-18.898v18.898l16.365-9.45V18.899zm49.096 9.448l-16.365 9.45v18.897l16.365-9.449zm-32.73 37.796L65.46 75.59v18.898l16.366-9.449V66.142zM65.46 94.488l-16.365-9.449v37.795l16.365-9.448z" fill="#ed8e24"/><path d="M65.461 0L0 37.795l16.365 9.449 49.096-28.346 32.73 18.897 16.366-9.449zm0 56.693l-16.365 9.449 16.365 9.448 16.366-9.448-16.366-9.45z" fill="#f8bf3c"/></g></svg>