<svg viewBox="0 0 96 76" xmlns="http://www.w3.org/2000/svg"><g fill="none" fill-rule="evenodd"><path d="M56.47.82c.17-.45.7-.82 1.18-.82h4.72c.48 0 .74.37.57.82L34.9 75.18c-.17.45-.7.82-1.19.82h-4.15c-.48 0-.74-.37-.57-.82zm32.73 0c.17-.45.7-.82 1.18-.82h4.72c.48 0 .74.37.57.82L67.63 75.18c-.17.45-.7.82-1.19.82H62.3c-.48 0-.74-.37-.57-.82z" fill="#8bc34a"/><g fill="#0f9d58"><path d="M34.28 75.18c.17.45-.09.82-.57.82h-4.14c-.48 0-1.02-.37-1.19-.82L.34.82C.17.37.42 0 .91 0h4.72c.48 0 1.01.37 1.18.82z"/><path d="M43.5 26.99c-.17.45-.44.45-.61 0L33.07.82c-.18-.45.08-.82.56-.82h4.72c.48 0 1.01.37 1.18.82l6.52 17.67c.17.45.17 1.19 0 1.64zm9.08 10.77c.18-.45.46-.44.63.01l13.8 37.41c.17.45-.09.82-.57.82h-4.15c-.48 0-1.02-.37-1.19-.82L50.03 45.79c-.17-.45-.16-1.19.01-1.64z" fill-rule="nonzero"/></g></g></svg>